<?xml version="1.0" encoding="UTF-8" standalone="no" ?>
<!DOCTYPE svg PUBLIC "-//W3C//DTD SVG 1.1//EN" "http://www.w3.org/Graphics/SVG/1.1/DTD/svg11.dtd">
<svg xmlns="http://www.w3.org/2000/svg" xmlns:xlink="http://www.w3.org/1999/xlink" version="1.1" width="1080" height="1080" viewBox="0 0 1080 1080" xml:space="preserve">
<desc>Created with Fabric.js 5.2.4</desc>
<defs>
</defs>
<g transform="matrix(1 0 0 1 540 540)" id="168aa04e-c721-4af4-a7a4-b44b61164b16"  >
<rect style="stroke: none; stroke-width: 1; stroke-dasharray: none; stroke-linecap: butt; stroke-dashoffset: 0; stroke-linejoin: miter; stroke-miterlimit: 4; fill: rgb(255,255,255); fill-rule: nonzero; opacity: 1; visibility: hidden;" vector-effect="non-scaling-stroke"  x="-540" y="-540" rx="0" ry="0" width="1080" height="1080" />
</g>
<g transform="matrix(1 0 0 1 540 540)" id="40ce8d8a-cfff-4c6a-99cf-d9167e04fda7"  >
</g>
<g transform="matrix(1 0 0 1 540 540)"  >
<g style="" vector-effect="non-scaling-stroke"   >
		<g transform="matrix(1.33 0 0 1.33 -169.51 -519.97)"  >
<path style="stroke: none; stroke-width: 1; stroke-dasharray: none; stroke-linecap: butt; stroke-dashoffset: 0; stroke-linejoin: miter; stroke-miterlimit: 4; fill: rgb(255,255,255); fill-rule: nonzero; opacity: 1;" vector-effect="non-scaling-stroke"  transform=" translate(-622.87, -285.27)" d="M 765.351562 337.710938 C 764.589844 336.957031 762.277344 330.871094 761.515625 329.355469 C 683.992188 170.574219 510.734375 175.863281 483.394531 247.28125 C 462.105469 301.980469 554.074219 431.902344 765.351562 337.710938 Z M 765.351562 337.710938" stroke-linecap="round" />
</g>
		<g transform="matrix(1.33 0 0 1.33 119.62 -575.81)"  >
<path style="stroke: none; stroke-width: 1; stroke-dasharray: none; stroke-linecap: butt; stroke-dashoffset: 0; stroke-linejoin: miter; stroke-miterlimit: 4; fill: rgb(255,255,255); fill-rule: nonzero; opacity: 1;" vector-effect="non-scaling-stroke"  transform=" translate(-839.72, -243.39)" d="M 800.292969 323.265625 C 919.570312 270.085938 902.875 178.179688 871.699219 166.011719 C 830.640625 150.046875 754.671875 211.625 797.980469 318.703125 C 798.738281 319.46875 800.292969 322.503906 800.292969 323.265625 Z M 800.292969 323.265625" stroke-linecap="round" />
</g>
		<g transform="matrix(1.33 0 0 1.33 -74.44 -159.45)"  >
<path style="stroke: none; stroke-width: 1; stroke-dasharray: none; stroke-linecap: butt; stroke-dashoffset: 0; stroke-linejoin: miter; stroke-miterlimit: 4; fill: rgb(255,255,255); fill-rule: nonzero; opacity: 1;" vector-effect="non-scaling-stroke"  transform=" translate(-694.17, -555.66)" d="M 686.308594 466.386719 C 664.257812 500.59375 647.53125 535.535156 636.121094 560.621094 C 635.398438 562.140625 635.398438 562.898438 634.640625 564.417969 C 630.839844 574.296875 627 581.902344 624.753906 588.746094 C 621.714844 596.308594 625.515625 605.46875 633.875 608.472656 C 639.925781 610.789062 648.289062 613.792969 658.210938 617.59375 C 659.695312 618.355469 660.492188 618.355469 662.011719 619.082031 C 688.621094 628.203125 725.085938 638.085938 764.628906 644.929688 C 741.054688 622.15625 722.046875 594.761719 708.355469 564.386719 C 694.640625 533.289062 687.066406 499.835938 686.308594 466.386719 Z M 686.308594 466.386719" stroke-linecap="round" />
</g>
		<g transform="matrix(1.33 0 0 1.33 273.12 -294.14)"  >
<path style="stroke: none; stroke-width: 1; stroke-dasharray: none; stroke-linecap: butt; stroke-dashoffset: 0; stroke-linejoin: miter; stroke-miterlimit: 4; fill: rgb(255,255,255); fill-rule: nonzero; opacity: 1;" vector-effect="non-scaling-stroke"  transform=" translate(-954.85, -454.64)" d="M 1019.867188 424.613281 C 1001.652344 384.363281 968.957031 354.746094 930.210938 341.0625 C 926.410156 339.578125 922.609375 338.78125 918.046875 338.78125 C 898.28125 338.78125 878.539062 355.511719 877.023438 376.035156 C 873.980469 410.964844 880.824219 445.898438 895.996094 480.105469 C 911.167969 513.554688 932.460938 541.644531 959.105469 562.898438 C 965.949219 568.21875 975.078125 570.496094 983.402344 570.496094 C 999.402344 570.496094 1014.578125 562.171875 1020.664062 547.730469 C 1037.355469 510.449219 1038.148438 465.632812 1019.867188 424.613281 Z M 1019.867188 424.613281" stroke-linecap="round" />
</g>
		<g transform="matrix(1.33 0 0 1.33 128.31 -242.5)" clip-path="url(#CLIPPATH_3)"  >
<clipPath id="CLIPPATH_3" >
	<path transform="matrix(1 0 0 1 0.26 -0.25) translate(-846.5, -493.13)" id="clip1" d="M 731 339 L 962 339 L 962 647.25 L 731 647.25 Z M 731 339" stroke-linecap="round" />
</clipPath>
<path style="stroke: none; stroke-width: 1; stroke-dasharray: none; stroke-linecap: butt; stroke-dashoffset: 0; stroke-linejoin: miter; stroke-miterlimit: 4; fill: rgb(255,255,255); fill-rule: nonzero; opacity: 1;" vector-effect="non-scaling-stroke"  transform=" translate(-846.24, -493.38)" d="M 851.167969 501.359375 C 832.195312 458.789062 824.589844 415.492188 828.394531 372.921875 C 829.121094 360.800781 832.953125 349.390625 838.242188 339.507812 C 837.515625 339.507812 835.960938 340.230469 835.199219 340.230469 C 833.683594 340.996094 831.398438 340.996094 829.878906 341.753906 C 818.472656 344.792969 807.101562 350.117188 797.21875 355.4375 C 791.929688 358.511719 787.367188 361.554688 782.046875 364.589844 C 756.226562 382.078125 734.9375 412.449219 731.894531 444.378906 C 728.820312 478.550781 734.9375 513.515625 749.351562 546.9375 C 763.792969 579.621094 785.054688 606.234375 810.90625 626.714844 C 826.875 639.640625 854.972656 647.242188 878.578125 647.242188 C 904.398438 647.242188 931.730469 637.363281 953.785156 623.675781 C 953.785156 623.675781 954.546875 623.675781 954.546875 622.953125 C 956.03125 622.199219 957.589844 620.636719 959.105469 619.875 C 959.828125 619.113281 960.59375 618.390625 961.355469 618.390625 C 949.1875 615.3125 938.578125 610.035156 929.453125 603.152344 C 896.035156 577.339844 869.453125 543.132812 851.167969 501.359375 Z M 851.167969 501.359375" stroke-linecap="round" />
</g>
		<g transform="matrix(1.33 0 0 1.33 -811.13 287.48)"  >
<path style="stroke: none; stroke-width: 1; stroke-dasharray: none; stroke-linecap: butt; stroke-dashoffset: 0; stroke-linejoin: miter; stroke-miterlimit: 4; fill: rgb(255,255,255); fill-rule: nonzero; opacity: 1;" vector-effect="non-scaling-stroke"  transform=" translate(-96.07, 87.7)" d="M 34.734375 -23.734375 C 17.578125 -40.554688 9 -61.875 9 -87.6875 C 9 -113.507812 17.617188 -134.832031 34.859375 -151.65625 C 52.097656 -168.476562 73.207031 -176.890625 98.1875 -176.890625 C 117.175781 -176.890625 134.039062 -172.054688 148.78125 -162.390625 C 163.519531 -152.734375 174.054688 -139.160156 180.390625 -121.671875 L 138.15625 -121.671875 C 130.332031 -136.992188 117.007812 -144.65625 98.1875 -144.65625 C 82.363281 -144.65625 69.492188 -139.445312 59.578125 -129.03125 C 49.671875 -118.625 44.71875 -104.800781 44.71875 -87.5625 C 44.71875 -70.332031 49.671875 -56.507812 59.578125 -46.09375 C 69.492188 -35.6875 81.65625 -30.484375 96.0625 -30.484375 C 110.46875 -30.484375 121.789062 -34.019531 130.03125 -41.09375 C 138.28125 -48.175781 143.40625 -57.710938 145.40625 -69.703125 L 87.453125 -69.703125 L 87.453125 -96.4375 L 183.140625 -96.4375 L 183.140625 -69.703125 C 180.140625 -50.710938 170.8125 -34.097656 155.15625 -19.859375 C 139.5 -5.617188 119.800781 1.5 96.0625 1.5 C 72.332031 1.5 51.890625 -6.910156 34.734375 -23.734375 Z M 34.734375 -23.734375" stroke-linecap="round" />
</g>
		<g transform="matrix(1.33 0 0 1.33 -607.61 310.81)"  >
<path style="stroke: none; stroke-width: 1; stroke-dasharray: none; stroke-linecap: butt; stroke-dashoffset: 0; stroke-linejoin: miter; stroke-miterlimit: 4; fill: rgb(255,255,255); fill-rule: nonzero; opacity: 1;" vector-effect="non-scaling-stroke"  transform=" translate(-56.59, 70.2)" d="M 53.96875 -138.40625 L 53.96875 -113.921875 C 63.289062 -131.578125 76.78125 -140.40625 94.4375 -140.40625 L 94.4375 -104.4375 L 85.703125 -104.4375 C 75.203125 -104.4375 67.285156 -101.8125 61.953125 -96.5625 C 56.628906 -91.3125 53.96875 -82.273438 53.96875 -69.453125 L 53.96875 0 L 18.734375 0 L 18.734375 -138.40625 Z M 53.96875 -138.40625" stroke-linecap="round" />
</g>
		<g transform="matrix(1.33 0 0 1.33 -444.87 312.14)"  >
<path style="stroke: none; stroke-width: 1; stroke-dasharray: none; stroke-linecap: butt; stroke-dashoffset: 0; stroke-linejoin: miter; stroke-miterlimit: 4; fill: rgb(255,255,255); fill-rule: nonzero; opacity: 1;" vector-effect="non-scaling-stroke"  transform=" translate(-77.95, 69.2)" d="M 77.203125 2 C 57.046875 2 40.640625 -4.535156 27.984375 -17.609375 C 15.328125 -30.691406 9 -47.972656 9 -69.453125 C 9 -90.941406 15.367188 -108.140625 28.109375 -121.046875 C 40.847656 -133.953125 57.335938 -140.40625 77.578125 -140.40625 C 97.816406 -140.40625 114.429688 -134.117188 127.421875 -121.546875 C 140.410156 -108.972656 146.90625 -92.191406 146.90625 -71.203125 C 146.90625 -66.367188 146.570312 -61.875 145.90625 -57.71875 L 44.96875 -57.71875 C 45.800781 -48.71875 49.128906 -41.46875 54.953125 -35.96875 C 60.785156 -30.476562 68.203125 -27.734375 77.203125 -27.734375 C 89.359375 -27.734375 98.351562 -32.726562 104.1875 -42.71875 L 142.15625 -42.71875 C 138.164062 -29.5625 130.421875 -18.816406 118.921875 -10.484375 C 107.429688 -2.160156 93.523438 2 77.203125 2 Z M 110.4375 -80.453125 C 109.9375 -89.609375 106.5625 -96.9375 100.3125 -102.4375 C 94.0625 -107.9375 86.519531 -110.6875 77.6875 -110.6875 C 68.863281 -110.6875 61.492188 -107.9375 55.578125 -102.4375 C 49.671875 -96.9375 46.132812 -89.609375 44.96875 -80.453125 Z M 110.4375 -80.453125" stroke-linecap="round" />
</g>
		<g transform="matrix(1.33 0 0 1.33 -237.01 312.14)"  >
<path style="stroke: none; stroke-width: 1; stroke-dasharray: none; stroke-linecap: butt; stroke-dashoffset: 0; stroke-linejoin: miter; stroke-miterlimit: 4; fill: rgb(255,255,255); fill-rule: nonzero; opacity: 1;" vector-effect="non-scaling-stroke"  transform=" translate(-77.95, 69.2)" d="M 77.203125 2 C 57.046875 2 40.640625 -4.535156 27.984375 -17.609375 C 15.328125 -30.691406 9 -47.972656 9 -69.453125 C 9 -90.941406 15.367188 -108.140625 28.109375 -121.046875 C 40.847656 -133.953125 57.335938 -140.40625 77.578125 -140.40625 C 97.816406 -140.40625 114.429688 -134.117188 127.421875 -121.546875 C 140.410156 -108.972656 146.90625 -92.191406 146.90625 -71.203125 C 146.90625 -66.367188 146.570312 -61.875 145.90625 -57.71875 L 44.96875 -57.71875 C 45.800781 -48.71875 49.128906 -41.46875 54.953125 -35.96875 C 60.785156 -30.476562 68.203125 -27.734375 77.203125 -27.734375 C 89.359375 -27.734375 98.351562 -32.726562 104.1875 -42.71875 L 142.15625 -42.71875 C 138.164062 -29.5625 130.421875 -18.816406 118.921875 -10.484375 C 107.429688 -2.160156 93.523438 2 77.203125 2 Z M 110.4375 -80.453125 C 109.9375 -89.609375 106.5625 -96.9375 100.3125 -102.4375 C 94.0625 -107.9375 86.519531 -110.6875 77.6875 -110.6875 C 68.863281 -110.6875 61.492188 -107.9375 55.578125 -102.4375 C 49.671875 -96.9375 46.132812 -89.609375 44.96875 -80.453125 Z M 110.4375 -80.453125" stroke-linecap="round" />
</g>
		<g transform="matrix(1.33 0 0 1.33 -20.16 310.81)"  >
<path style="stroke: none; stroke-width: 1; stroke-dasharray: none; stroke-linecap: butt; stroke-dashoffset: 0; stroke-linejoin: miter; stroke-miterlimit: 4; fill: rgb(255,255,255); fill-rule: nonzero; opacity: 1;" vector-effect="non-scaling-stroke"  transform=" translate(-84.7, 70.2)" d="M 53.96875 -138.40625 L 53.96875 -117.671875 C 62.789062 -132.828125 77.113281 -140.40625 96.9375 -140.40625 C 112.757812 -140.40625 125.664062 -135.203125 135.65625 -124.796875 C 145.65625 -114.390625 150.65625 -99.941406 150.65625 -81.453125 L 150.65625 0 L 115.671875 0 L 115.671875 -76.453125 C 115.671875 -87.273438 112.921875 -95.5625 107.421875 -101.3125 C 101.929688 -107.0625 94.4375 -109.9375 84.9375 -109.9375 C 75.445312 -109.9375 67.910156 -107.0625 62.328125 -101.3125 C 56.753906 -95.5625 53.96875 -87.273438 53.96875 -76.453125 L 53.96875 0 L 18.734375 0 L 18.734375 -138.40625 Z M 53.96875 -138.40625" stroke-linecap="round" />
</g>
		<g transform="matrix(1.33 0 0 1.33 91.1 404.41)"  >
<path style="stroke: none; stroke-width: 1; stroke-dasharray: none; stroke-linecap: butt; stroke-dashoffset: 0; stroke-linejoin: miter; stroke-miterlimit: 4; fill: rgb(255,255,255); fill-rule: nonzero; opacity: 1;" vector-effect="non-scaling-stroke"  transform=" translate(0, 0)" d="" stroke-linecap="round" />
</g>
		<g transform="matrix(1.33 0 0 1.33 312.95 288.15)"  >
<path style="stroke: none; stroke-width: 1; stroke-dasharray: none; stroke-linecap: butt; stroke-dashoffset: 0; stroke-linejoin: miter; stroke-miterlimit: 4; fill: rgb(255,255,255); fill-rule: nonzero; opacity: 1;" vector-effect="non-scaling-stroke"  transform=" translate(-91.44, 87.2)" d="M 128.921875 -174.390625 L 164.140625 -174.390625 L 164.140625 0 L 128.921875 0 L 128.921875 -74.703125 L 53.96875 -74.703125 L 53.96875 0 L 18.734375 0 L 18.734375 -174.390625 L 53.96875 -174.390625 L 53.96875 -101.6875 L 128.921875 -101.6875 Z M 128.921875 -174.390625" stroke-linecap="round" />
</g>
		<g transform="matrix(1.33 0 0 1.33 483.34 274.33)"  >
<path style="stroke: none; stroke-width: 1; stroke-dasharray: none; stroke-linecap: butt; stroke-dashoffset: 0; stroke-linejoin: miter; stroke-miterlimit: 4; fill: rgb(255,255,255); fill-rule: nonzero; opacity: 1;" vector-effect="non-scaling-stroke"  transform=" translate(-36.35, 97.56)" d="M 57.71875 -173.640625 C 57.71875 -167.640625 55.632812 -162.554688 51.46875 -158.390625 C 47.300781 -154.234375 42.257812 -152.15625 36.34375 -152.15625 C 30.4375 -152.15625 25.398438 -154.234375 21.234375 -158.390625 C 17.066406 -162.554688 14.984375 -167.640625 14.984375 -173.640625 C 14.984375 -179.640625 17.066406 -184.71875 21.234375 -188.875 C 25.398438 -193.039062 30.4375 -195.125 36.34375 -195.125 C 42.257812 -195.125 47.300781 -193.039062 51.46875 -188.875 C 55.632812 -184.71875 57.71875 -179.640625 57.71875 -173.640625 Z M 18.734375 0 L 18.734375 -138.40625 L 53.96875 -138.40625 L 53.96875 0 Z M 18.734375 0" stroke-linecap="round" />
</g>
		<g transform="matrix(1.33 0 0 1.33 631.58 312.14)"  >
<path style="stroke: none; stroke-width: 1; stroke-dasharray: none; stroke-linecap: butt; stroke-dashoffset: 0; stroke-linejoin: miter; stroke-miterlimit: 4; fill: rgb(255,255,255); fill-rule: nonzero; opacity: 1;" vector-effect="non-scaling-stroke"  transform=" translate(-74.83, 69.2)" d="M 1.75 -138.40625 L 39.21875 -138.40625 L 74.953125 -30.234375 L 110.4375 -138.40625 L 147.90625 -138.40625 L 96.9375 0 L 52.71875 0 Z M 1.75 -138.40625" stroke-linecap="round" />
</g>
		<g transform="matrix(1.33 0 0 1.33 835.28 312.14)"  >
<path style="stroke: none; stroke-width: 1; stroke-dasharray: none; stroke-linecap: butt; stroke-dashoffset: 0; stroke-linejoin: miter; stroke-miterlimit: 4; fill: rgb(255,255,255); fill-rule: nonzero; opacity: 1;" vector-effect="non-scaling-stroke"  transform=" translate(-77.95, 69.2)" d="M 77.203125 2 C 57.046875 2 40.640625 -4.535156 27.984375 -17.609375 C 15.328125 -30.691406 9 -47.972656 9 -69.453125 C 9 -90.941406 15.367188 -108.140625 28.109375 -121.046875 C 40.847656 -133.953125 57.335938 -140.40625 77.578125 -140.40625 C 97.816406 -140.40625 114.429688 -134.117188 127.421875 -121.546875 C 140.410156 -108.972656 146.90625 -92.191406 146.90625 -71.203125 C 146.90625 -66.367188 146.570312 -61.875 145.90625 -57.71875 L 44.96875 -57.71875 C 45.800781 -48.71875 49.128906 -41.46875 54.953125 -35.96875 C 60.785156 -30.476562 68.203125 -27.734375 77.203125 -27.734375 C 89.359375 -27.734375 98.351562 -32.726562 104.1875 -42.71875 L 142.15625 -42.71875 C 138.164062 -29.5625 130.421875 -18.816406 118.921875 -10.484375 C 107.429688 -2.160156 93.523438 2 77.203125 2 Z M 110.4375 -80.453125 C 109.9375 -89.609375 106.5625 -96.9375 100.3125 -102.4375 C 94.0625 -107.9375 86.519531 -110.6875 77.6875 -110.6875 C 68.863281 -110.6875 61.492188 -107.9375 55.578125 -102.4375 C 49.671875 -96.9375 46.132812 -89.609375 44.96875 -80.453125 Z M 110.4375 -80.453125" stroke-linecap="round" />
</g>
		<g transform="matrix(1.33 0 0 1.33 -686.31 642.52)"  >
<path style="stroke: none; stroke-width: 1; stroke-dasharray: none; stroke-linecap: butt; stroke-dashoffset: 0; stroke-linejoin: miter; stroke-miterlimit: 4; fill: rgb(255,255,255); fill-rule: nonzero; opacity: 1;" vector-effect="non-scaling-stroke"  transform=" translate(-26.7, 29.09)" d="M 6.296875 -58.1875 L 27.125 -58.1875 C 33.050781 -58.1875 37.640625 -56.742188 40.890625 -53.859375 C 44.140625 -50.984375 45.765625 -47.273438 45.765625 -42.734375 C 45.765625 -36.242188 42.039062 -31.960938 34.59375 -29.890625 C 38.34375 -29.273438 41.363281 -27.59375 43.65625 -24.84375 C 45.957031 -22.101562 47.109375 -18.941406 47.109375 -15.359375 C 47.109375 -10.941406 45.382812 -7.273438 41.9375 -4.359375 C 38.5 -1.453125 33.894531 0 28.125 0 L 6.296875 0 Z M 13.9375 -52.0625 L 13.9375 -32.921875 L 26.78125 -32.921875 C 30.3125 -32.921875 33.066406 -33.769531 35.046875 -35.46875 C 37.035156 -37.175781 38.03125 -39.5 38.03125 -42.4375 C 38.03125 -45.382812 37.035156 -47.722656 35.046875 -49.453125 C 33.066406 -51.191406 30.3125 -52.0625 26.78125 -52.0625 Z M 13.9375 -6.046875 L 27.703125 -6.046875 C 31.398438 -6.046875 34.296875 -6.96875 36.390625 -8.8125 C 38.492188 -10.664062 39.546875 -13.203125 39.546875 -16.421875 C 39.546875 -19.640625 38.410156 -22.171875 36.140625 -24.015625 C 33.878906 -25.859375 30.875 -26.78125 27.125 -26.78125 L 13.9375 -26.78125 Z M 13.9375 -6.046875" stroke-linecap="round" />
</g>
		<g transform="matrix(1.33 0 0 1.33 -601.23 650.58)"  >
<path style="stroke: none; stroke-width: 1; stroke-dasharray: none; stroke-linecap: butt; stroke-dashoffset: 0; stroke-linejoin: miter; stroke-miterlimit: 4; fill: rgb(255,255,255); fill-rule: nonzero; opacity: 1;" vector-effect="non-scaling-stroke"  transform=" translate(-25.7, 23.05)" d="M 25.609375 0.75 C 19.003906 0.75 13.628906 -1.429688 9.484375 -5.796875 C 5.347656 -10.160156 3.28125 -15.925781 3.28125 -23.09375 C 3.28125 -30.257812 5.378906 -36.007812 9.578125 -40.34375 C 13.773438 -44.6875 19.21875 -46.859375 25.90625 -46.859375 C 32.59375 -46.859375 37.960938 -44.800781 42.015625 -40.6875 C 46.078125 -36.570312 48.109375 -31.320312 48.109375 -24.9375 C 48.109375 -23.3125 48 -21.800781 47.78125 -20.40625 L 11.078125 -20.40625 C 11.304688 -15.8125 12.75 -12.1875 15.40625 -9.53125 C 18.0625 -6.875 21.460938 -5.546875 25.609375 -5.546875 C 28.742188 -5.546875 31.390625 -6.242188 33.546875 -7.640625 C 35.703125 -9.035156 37.285156 -10.882812 38.296875 -13.1875 L 46.515625 -13.1875 C 45.054688 -9.15625 42.550781 -5.820312 39 -3.1875 C 35.445312 -0.5625 30.984375 0.75 25.609375 0.75 Z M 40.140625 -25.953125 C 40.078125 -30.367188 38.675781 -33.90625 35.9375 -36.5625 C 33.195312 -39.226562 29.796875 -40.5625 25.734375 -40.5625 C 21.679688 -40.5625 18.3125 -39.257812 15.625 -36.65625 C 12.9375 -34.050781 11.453125 -30.484375 11.171875 -25.953125 Z M 40.140625 -25.953125" stroke-linecap="round" />
</g>
		<g transform="matrix(1.33 0 0 1.33 -549.17 681.32)"  >
<path style="stroke: none; stroke-width: 1; stroke-dasharray: none; stroke-linecap: butt; stroke-dashoffset: 0; stroke-linejoin: miter; stroke-miterlimit: 4; fill: rgb(255,255,255); fill-rule: nonzero; opacity: 1;" vector-effect="non-scaling-stroke"  transform=" translate(0, 0)" d="" stroke-linecap="round" />
</g>
		<g transform="matrix(1.33 0 0 1.33 -462.16 650.58)"  >
<path style="stroke: none; stroke-width: 1; stroke-dasharray: none; stroke-linecap: butt; stroke-dashoffset: 0; stroke-linejoin: miter; stroke-miterlimit: 4; fill: rgb(255,255,255); fill-rule: nonzero; opacity: 1;" vector-effect="non-scaling-stroke"  transform=" translate(-26.63, 23.05)" d="M 37.65625 -10.5 C 40.707031 -13.632812 42.234375 -17.800781 42.234375 -23 C 42.234375 -28.207031 40.707031 -32.378906 37.65625 -35.515625 C 34.601562 -38.648438 30.9375 -40.21875 26.65625 -40.21875 C 22.375 -40.21875 18.707031 -38.707031 15.65625 -35.6875 C 12.601562 -32.664062 11.078125 -28.550781 11.078125 -23.34375 C 11.078125 -18.132812 12.617188 -13.90625 15.703125 -10.65625 C 18.785156 -7.414062 22.453125 -5.796875 26.703125 -5.796875 C 30.953125 -5.796875 34.601562 -7.363281 37.65625 -10.5 Z M 25.28125 0.75 C 19.007812 0.75 13.773438 -1.5 9.578125 -6 C 5.378906 -10.507812 3.28125 -16.273438 3.28125 -23.296875 C 3.28125 -30.328125 5.363281 -36.007812 9.53125 -40.34375 C 13.695312 -44.6875 18.945312 -46.859375 25.28125 -46.859375 C 29.195312 -46.859375 32.625 -45.929688 35.5625 -44.078125 C 38.5 -42.234375 40.722656 -39.828125 42.234375 -36.859375 L 42.234375 -46.09375 L 49.96875 -46.09375 L 49.96875 0 L 42.234375 0 L 42.234375 -9.40625 C 40.722656 -6.382812 38.5 -3.9375 35.5625 -2.0625 C 32.625 -0.1875 29.195312 0.75 25.28125 0.75 Z M 25.28125 0.75" stroke-linecap="round" />
</g>
		<g transform="matrix(1.33 0 0 1.33 -404.74 681.32)"  >
<path style="stroke: none; stroke-width: 1; stroke-dasharray: none; stroke-linecap: butt; stroke-dashoffset: 0; stroke-linejoin: miter; stroke-miterlimit: 4; fill: rgb(255,255,255); fill-rule: nonzero; opacity: 1;" vector-effect="non-scaling-stroke"  transform=" translate(0, 0)" d="" stroke-linecap="round" />
</g>
		<g transform="matrix(1.33 0 0 1.33 -335.09 638.38)"  >
<path style="stroke: none; stroke-width: 1; stroke-dasharray: none; stroke-linecap: butt; stroke-dashoffset: 0; stroke-linejoin: miter; stroke-miterlimit: 4; fill: rgb(255,255,255); fill-rule: nonzero; opacity: 1;" vector-effect="non-scaling-stroke"  transform=" translate(-13.61, 32.2)" d="M 25.28125 -46.09375 L 25.28125 -39.890625 L 15.625 -39.890625 L 15.625 0 L 7.890625 0 L 7.890625 -39.890625 L 1.9375 -39.890625 L 1.9375 -46.09375 L 7.890625 -46.09375 L 7.890625 -49.96875 C 7.890625 -55 9.234375 -58.660156 11.921875 -60.953125 C 14.609375 -63.253906 18.835938 -64.40625 24.609375 -64.40625 L 24.609375 -58.1875 C 21.242188 -58.1875 18.90625 -57.554688 17.59375 -56.296875 C 16.28125 -55.035156 15.625 -52.925781 15.625 -49.96875 L 15.625 -46.09375 Z M 25.28125 -46.09375" stroke-linecap="round" />
</g>
		<g transform="matrix(1.33 0 0 1.33 -262.99 650.58)"  >
<path style="stroke: none; stroke-width: 1; stroke-dasharray: none; stroke-linecap: butt; stroke-dashoffset: 0; stroke-linejoin: miter; stroke-miterlimit: 4; fill: rgb(255,255,255); fill-rule: nonzero; opacity: 1;" vector-effect="non-scaling-stroke"  transform=" translate(-26.54, 23.05)" d="M 25.9375 -5.546875 C 30.25 -5.546875 33.988281 -7.097656 37.15625 -10.203125 C 40.320312 -13.304688 41.90625 -17.597656 41.90625 -23.078125 C 41.90625 -28.566406 40.390625 -32.851562 37.359375 -35.9375 C 34.335938 -39.019531 30.65625 -40.5625 26.3125 -40.5625 C 21.976562 -40.5625 18.351562 -39.019531 15.4375 -35.9375 C 12.53125 -32.851562 11.078125 -28.554688 11.078125 -23.046875 C 11.078125 -17.535156 12.476562 -13.238281 15.28125 -10.15625 C 18.082031 -7.082031 21.632812 -5.546875 25.9375 -5.546875 Z M 9.609375 -5.796875 C 5.390625 -10.160156 3.28125 -15.894531 3.28125 -23 C 3.28125 -30.113281 5.488281 -35.867188 9.90625 -40.265625 C 14.332031 -44.660156 19.875 -46.859375 26.53125 -46.859375 C 33.195312 -46.859375 38.738281 -44.660156 43.15625 -40.265625 C 47.582031 -35.867188 49.796875 -30.128906 49.796875 -23.046875 C 49.796875 -15.960938 47.484375 -10.222656 42.859375 -5.828125 C 38.242188 -1.441406 32.601562 0.75 25.9375 0.75 C 19.28125 0.75 13.835938 -1.429688 9.609375 -5.796875 Z M 9.609375 -5.796875" stroke-linecap="round" />
</g>
		<g transform="matrix(1.33 0 0 1.33 -186.86 650.08)"  >
<path style="stroke: none; stroke-width: 1; stroke-dasharray: none; stroke-linecap: butt; stroke-dashoffset: 0; stroke-linejoin: miter; stroke-miterlimit: 4; fill: rgb(255,255,255); fill-rule: nonzero; opacity: 1;" vector-effect="non-scaling-stroke"  transform=" translate(-17.13, 23.43)" d="M 13.9375 -46.09375 L 13.9375 -38.296875 C 16.675781 -44.003906 21.351562 -46.859375 27.96875 -46.859375 L 27.96875 -38.875 L 25.953125 -38.875 C 22.023438 -38.875 19.039062 -37.851562 17 -35.8125 C 14.957031 -33.769531 13.9375 -30.226562 13.9375 -25.1875 L 13.9375 0 L 6.296875 0 L 6.296875 -46.09375 Z M 13.9375 -46.09375" stroke-linecap="round" />
</g>
		<g transform="matrix(1.33 0 0 1.33 -117.39 650.58)"  >
<path style="stroke: none; stroke-width: 1; stroke-dasharray: none; stroke-linecap: butt; stroke-dashoffset: 0; stroke-linejoin: miter; stroke-miterlimit: 4; fill: rgb(255,255,255); fill-rule: nonzero; opacity: 1;" vector-effect="non-scaling-stroke"  transform=" translate(-24.9, 23.05)" d="M 25.609375 0.75 C 19.003906 0.75 13.628906 -1.429688 9.484375 -5.796875 C 5.347656 -10.160156 3.28125 -15.910156 3.28125 -23.046875 C 3.28125 -30.179688 5.347656 -35.929688 9.484375 -40.296875 C 13.628906 -44.671875 19.003906 -46.859375 25.609375 -46.859375 C 31.148438 -46.859375 35.671875 -45.566406 39.171875 -42.984375 C 42.671875 -40.410156 45.117188 -36.742188 46.515625 -31.984375 L 38.296875 -31.984375 C 37.398438 -34.671875 35.859375 -36.769531 33.671875 -38.28125 C 31.484375 -39.800781 28.796875 -40.5625 25.609375 -40.5625 C 21.242188 -40.5625 17.726562 -39.035156 15.0625 -35.984375 C 12.40625 -32.929688 11.078125 -28.617188 11.078125 -23.046875 C 11.078125 -17.472656 12.40625 -13.160156 15.0625 -10.109375 C 17.726562 -7.066406 21.242188 -5.546875 25.609375 -5.546875 C 32.160156 -5.546875 36.390625 -8.398438 38.296875 -14.109375 L 46.515625 -14.109375 C 45.117188 -9.578125 42.640625 -5.96875 39.078125 -3.28125 C 35.523438 -0.59375 31.035156 0.75 25.609375 0.75 Z M 25.609375 0.75" stroke-linecap="round" />
</g>
		<g transform="matrix(1.33 0 0 1.33 -31.24 650.58)"  >
<path style="stroke: none; stroke-width: 1; stroke-dasharray: none; stroke-linecap: butt; stroke-dashoffset: 0; stroke-linejoin: miter; stroke-miterlimit: 4; fill: rgb(255,255,255); fill-rule: nonzero; opacity: 1;" vector-effect="non-scaling-stroke"  transform=" translate(-25.7, 23.05)" d="M 25.609375 0.75 C 19.003906 0.75 13.628906 -1.429688 9.484375 -5.796875 C 5.347656 -10.160156 3.28125 -15.925781 3.28125 -23.09375 C 3.28125 -30.257812 5.378906 -36.007812 9.578125 -40.34375 C 13.773438 -44.6875 19.21875 -46.859375 25.90625 -46.859375 C 32.59375 -46.859375 37.960938 -44.800781 42.015625 -40.6875 C 46.078125 -36.570312 48.109375 -31.320312 48.109375 -24.9375 C 48.109375 -23.3125 48 -21.800781 47.78125 -20.40625 L 11.078125 -20.40625 C 11.304688 -15.8125 12.75 -12.1875 15.40625 -9.53125 C 18.0625 -6.875 21.460938 -5.546875 25.609375 -5.546875 C 28.742188 -5.546875 31.390625 -6.242188 33.546875 -7.640625 C 35.703125 -9.035156 37.285156 -10.882812 38.296875 -13.1875 L 46.515625 -13.1875 C 45.054688 -9.15625 42.550781 -5.820312 39 -3.1875 C 35.445312 -0.5625 30.984375 0.75 25.609375 0.75 Z M 40.140625 -25.953125 C 40.078125 -30.367188 38.675781 -33.90625 35.9375 -36.5625 C 33.195312 -39.226562 29.796875 -40.5625 25.734375 -40.5625 C 21.679688 -40.5625 18.3125 -39.257812 15.625 -36.65625 C 12.9375 -34.050781 11.453125 -30.484375 11.171875 -25.953125 Z M 40.140625 -25.953125" stroke-linecap="round" />
</g>
		<g transform="matrix(1.33 0 0 1.33 20.82 681.32)"  >
<path style="stroke: none; stroke-width: 1; stroke-dasharray: none; stroke-linecap: butt; stroke-dashoffset: 0; stroke-linejoin: miter; stroke-miterlimit: 4; fill: rgb(255,255,255); fill-rule: nonzero; opacity: 1;" vector-effect="non-scaling-stroke"  transform=" translate(0, 0)" d="" stroke-linecap="round" />
</g>
		<g transform="matrix(1.33 0 0 1.33 107.71 650.58)"  >
<path style="stroke: none; stroke-width: 1; stroke-dasharray: none; stroke-linecap: butt; stroke-dashoffset: 0; stroke-linejoin: miter; stroke-miterlimit: 4; fill: rgb(255,255,255); fill-rule: nonzero; opacity: 1;" vector-effect="non-scaling-stroke"  transform=" translate(-26.54, 23.05)" d="M 25.9375 -5.546875 C 30.25 -5.546875 33.988281 -7.097656 37.15625 -10.203125 C 40.320312 -13.304688 41.90625 -17.597656 41.90625 -23.078125 C 41.90625 -28.566406 40.390625 -32.851562 37.359375 -35.9375 C 34.335938 -39.019531 30.65625 -40.5625 26.3125 -40.5625 C 21.976562 -40.5625 18.351562 -39.019531 15.4375 -35.9375 C 12.53125 -32.851562 11.078125 -28.554688 11.078125 -23.046875 C 11.078125 -17.535156 12.476562 -13.238281 15.28125 -10.15625 C 18.082031 -7.082031 21.632812 -5.546875 25.9375 -5.546875 Z M 9.609375 -5.796875 C 5.390625 -10.160156 3.28125 -15.894531 3.28125 -23 C 3.28125 -30.113281 5.488281 -35.867188 9.90625 -40.265625 C 14.332031 -44.660156 19.875 -46.859375 26.53125 -46.859375 C 33.195312 -46.859375 38.738281 -44.660156 43.15625 -40.265625 C 47.582031 -35.867188 49.796875 -30.128906 49.796875 -23.046875 C 49.796875 -15.960938 47.484375 -10.222656 42.859375 -5.828125 C 38.242188 -1.441406 32.601562 0.75 25.9375 0.75 C 19.28125 0.75 13.835938 -1.429688 9.609375 -5.796875 Z M 9.609375 -5.796875" stroke-linecap="round" />
</g>
		<g transform="matrix(1.33 0 0 1.33 179.14 638.38)"  >
<path style="stroke: none; stroke-width: 1; stroke-dasharray: none; stroke-linecap: butt; stroke-dashoffset: 0; stroke-linejoin: miter; stroke-miterlimit: 4; fill: rgb(255,255,255); fill-rule: nonzero; opacity: 1;" vector-effect="non-scaling-stroke"  transform=" translate(-13.61, 32.2)" d="M 25.28125 -46.09375 L 25.28125 -39.890625 L 15.625 -39.890625 L 15.625 0 L 7.890625 0 L 7.890625 -39.890625 L 1.9375 -39.890625 L 1.9375 -46.09375 L 7.890625 -46.09375 L 7.890625 -49.96875 C 7.890625 -55 9.234375 -58.660156 11.921875 -60.953125 C 14.609375 -63.253906 18.835938 -64.40625 24.609375 -64.40625 L 24.609375 -58.1875 C 21.242188 -58.1875 18.90625 -57.554688 17.59375 -56.296875 C 16.28125 -55.035156 15.625 -52.925781 15.625 -49.96875 L 15.625 -46.09375 Z M 25.28125 -46.09375" stroke-linecap="round" />
</g>
		<g transform="matrix(1.33 0 0 1.33 215.85 681.32)"  >
<path style="stroke: none; stroke-width: 1; stroke-dasharray: none; stroke-linecap: butt; stroke-dashoffset: 0; stroke-linejoin: miter; stroke-miterlimit: 4; fill: rgb(255,255,255); fill-rule: nonzero; opacity: 1;" vector-effect="non-scaling-stroke"  transform=" translate(0, 0)" d="" stroke-linecap="round" />
</g>
		<g transform="matrix(1.33 0 0 1.33 302.79 650.08)"  >
<path style="stroke: none; stroke-width: 1; stroke-dasharray: none; stroke-linecap: butt; stroke-dashoffset: 0; stroke-linejoin: miter; stroke-miterlimit: 4; fill: rgb(255,255,255); fill-rule: nonzero; opacity: 1;" vector-effect="non-scaling-stroke"  transform=" translate(-26.58, 23.43)" d="M 13.9375 -46.09375 L 13.9375 -38.625 C 17.070312 -44.113281 22.082031 -46.859375 28.96875 -46.859375 C 34.0625 -46.859375 38.316406 -45.160156 41.734375 -41.765625 C 45.148438 -38.378906 46.859375 -33.554688 46.859375 -27.296875 L 46.859375 0 L 39.296875 0 L 39.296875 -26.03125 C 39.296875 -30.675781 38.175781 -34.203125 35.9375 -36.609375 C 33.695312 -39.015625 30.601562 -40.21875 26.65625 -40.21875 C 22.707031 -40.21875 19.597656 -39.015625 17.328125 -36.609375 C 15.066406 -34.203125 13.9375 -30.675781 13.9375 -26.03125 L 13.9375 0 L 6.296875 0 L 6.296875 -46.09375 Z M 13.9375 -46.09375" stroke-linecap="round" />
</g>
		<g transform="matrix(1.33 0 0 1.33 391.08 650.58)"  >
<path style="stroke: none; stroke-width: 1; stroke-dasharray: none; stroke-linecap: butt; stroke-dashoffset: 0; stroke-linejoin: miter; stroke-miterlimit: 4; fill: rgb(255,255,255); fill-rule: nonzero; opacity: 1;" vector-effect="non-scaling-stroke"  transform=" translate(-26.63, 23.05)" d="M 37.65625 -10.5 C 40.707031 -13.632812 42.234375 -17.800781 42.234375 -23 C 42.234375 -28.207031 40.707031 -32.378906 37.65625 -35.515625 C 34.601562 -38.648438 30.9375 -40.21875 26.65625 -40.21875 C 22.375 -40.21875 18.707031 -38.707031 15.65625 -35.6875 C 12.601562 -32.664062 11.078125 -28.550781 11.078125 -23.34375 C 11.078125 -18.132812 12.617188 -13.90625 15.703125 -10.65625 C 18.785156 -7.414062 22.453125 -5.796875 26.703125 -5.796875 C 30.953125 -5.796875 34.601562 -7.363281 37.65625 -10.5 Z M 25.28125 0.75 C 19.007812 0.75 13.773438 -1.5 9.578125 -6 C 5.378906 -10.507812 3.28125 -16.273438 3.28125 -23.296875 C 3.28125 -30.328125 5.363281 -36.007812 9.53125 -40.34375 C 13.695312 -44.6875 18.945312 -46.859375 25.28125 -46.859375 C 29.195312 -46.859375 32.625 -45.929688 35.5625 -44.078125 C 38.5 -42.234375 40.722656 -39.828125 42.234375 -36.859375 L 42.234375 -46.09375 L 49.96875 -46.09375 L 49.96875 0 L 42.234375 0 L 42.234375 -9.40625 C 40.722656 -6.382812 38.5 -3.9375 35.5625 -2.0625 C 32.625 -0.1875 29.195312 0.75 25.28125 0.75 Z M 25.28125 0.75" stroke-linecap="round" />
</g>
		<g transform="matrix(1.33 0 0 1.33 468.32 642.97)"  >
<path style="stroke: none; stroke-width: 1; stroke-dasharray: none; stroke-linecap: butt; stroke-dashoffset: 0; stroke-linejoin: miter; stroke-miterlimit: 4; fill: rgb(255,255,255); fill-rule: nonzero; opacity: 1;" vector-effect="non-scaling-stroke"  transform=" translate(-14.86, 28.76)" d="M 21.40625 -6.21875 L 27.703125 -6.21875 L 27.703125 0 L 19.984375 0 C 11.984375 0 7.984375 -3.945312 7.984375 -11.84375 L 7.984375 -39.890625 L 2.015625 -39.890625 L 2.015625 -46.09375 L 7.984375 -46.09375 L 7.984375 -57.515625 L 15.703125 -57.515625 L 15.703125 -46.09375 L 27.625 -46.09375 L 27.625 -39.890625 L 15.703125 -39.890625 L 15.703125 -11.84375 C 15.703125 -9.769531 16.117188 -8.3125 16.953125 -7.46875 C 17.796875 -6.632812 19.28125 -6.21875 21.40625 -6.21875 Z M 21.40625 -6.21875" stroke-linecap="round" />
</g>
		<g transform="matrix(1.33 0 0 1.33 541.04 651.09)"  >
<path style="stroke: none; stroke-width: 1; stroke-dasharray: none; stroke-linecap: butt; stroke-dashoffset: 0; stroke-linejoin: miter; stroke-miterlimit: 4; fill: rgb(255,255,255); fill-rule: nonzero; opacity: 1;" vector-effect="non-scaling-stroke"  transform=" translate(-26.16, 22.67)" d="M 38.796875 -46.09375 L 46.4375 -46.09375 L 46.4375 0 L 38.796875 0 L 38.796875 -7.390625 C 35.710938 -1.960938 30.703125 0.75 23.765625 0.75 C 18.671875 0.75 14.414062 -0.941406 11 -4.328125 C 7.582031 -7.710938 5.875 -12.507812 5.875 -18.71875 L 5.875 -46.09375 L 13.4375 -46.09375 L 13.4375 -19.984375 C 13.4375 -15.390625 14.566406 -11.875 16.828125 -9.4375 C 19.097656 -7.007812 22.191406 -5.796875 26.109375 -5.796875 C 30.023438 -5.796875 33.117188 -7.007812 35.390625 -9.4375 C 37.660156 -11.875 38.796875 -15.390625 38.796875 -19.984375 Z M 38.796875 -46.09375" stroke-linecap="round" />
</g>
		<g transform="matrix(1.33 0 0 1.33 617.23 650.08)"  >
<path style="stroke: none; stroke-width: 1; stroke-dasharray: none; stroke-linecap: butt; stroke-dashoffset: 0; stroke-linejoin: miter; stroke-miterlimit: 4; fill: rgb(255,255,255); fill-rule: nonzero; opacity: 1;" vector-effect="non-scaling-stroke"  transform=" translate(-17.13, 23.43)" d="M 13.9375 -46.09375 L 13.9375 -38.296875 C 16.675781 -44.003906 21.351562 -46.859375 27.96875 -46.859375 L 27.96875 -38.875 L 25.953125 -38.875 C 22.023438 -38.875 19.039062 -37.851562 17 -35.8125 C 14.957031 -33.769531 13.9375 -30.226562 13.9375 -25.1875 L 13.9375 0 L 6.296875 0 L 6.296875 -46.09375 Z M 13.9375 -46.09375" stroke-linecap="round" />
</g>
		<g transform="matrix(1.33 0 0 1.33 687.76 650.58)"  >
<path style="stroke: none; stroke-width: 1; stroke-dasharray: none; stroke-linecap: butt; stroke-dashoffset: 0; stroke-linejoin: miter; stroke-miterlimit: 4; fill: rgb(255,255,255); fill-rule: nonzero; opacity: 1;" vector-effect="non-scaling-stroke"  transform=" translate(-25.7, 23.05)" d="M 25.609375 0.75 C 19.003906 0.75 13.628906 -1.429688 9.484375 -5.796875 C 5.347656 -10.160156 3.28125 -15.925781 3.28125 -23.09375 C 3.28125 -30.257812 5.378906 -36.007812 9.578125 -40.34375 C 13.773438 -44.6875 19.21875 -46.859375 25.90625 -46.859375 C 32.59375 -46.859375 37.960938 -44.800781 42.015625 -40.6875 C 46.078125 -36.570312 48.109375 -31.320312 48.109375 -24.9375 C 48.109375 -23.3125 48 -21.800781 47.78125 -20.40625 L 11.078125 -20.40625 C 11.304688 -15.8125 12.75 -12.1875 15.40625 -9.53125 C 18.0625 -6.875 21.460938 -5.546875 25.609375 -5.546875 C 28.742188 -5.546875 31.390625 -6.242188 33.546875 -7.640625 C 35.703125 -9.035156 37.285156 -10.882812 38.296875 -13.1875 L 46.515625 -13.1875 C 45.054688 -9.15625 42.550781 -5.820312 39 -3.1875 C 35.445312 -0.5625 30.984375 0.75 25.609375 0.75 Z M 40.140625 -25.953125 C 40.078125 -30.367188 38.675781 -33.90625 35.9375 -36.5625 C 33.195312 -39.226562 29.796875 -40.5625 25.734375 -40.5625 C 21.679688 -40.5625 18.3125 -39.257812 15.625 -36.65625 C 12.9375 -34.050781 11.453125 -30.484375 11.171875 -25.953125 Z M 40.140625 -25.953125" stroke-linecap="round" />
</g>
</g>
</g>
</svg>